<?xml version="1.0" encoding="UTF-8"?>
<!DOCTYPE svg PUBLIC "-//W3C//DTD SVG 1.1//EN" "http://www.w3.org/Graphics/SVG/1.1/DTD/svg11.dtd">
<svg xmlns="http://www.w3.org/2000/svg" version="1.1" width="500px" height="500px" style="shape-rendering:geometricPrecision; text-rendering:geometricPrecision; image-rendering:optimizeQuality; fill-rule:evenodd; clip-rule:evenodd" xmlns:xlink="http://www.w3.org/1999/xlink">
<g><path style="opacity:1" fill="#f7f7f7" d="M 128.5,126.5 C 178.664,121.494 215.831,140.827 240,184.5C 246.966,199.032 250.466,214.365 250.5,230.5C 239.833,230.5 229.167,230.5 218.5,230.5C 215.77,189.935 194.437,165.769 154.5,158C 118.858,155.728 93.3579,170.561 78,202.5C 65.841,240.021 75.6744,270.187 107.5,293C 119.531,300.091 132.531,303.591 146.5,303.5C 146.82,314.082 146.487,324.582 145.5,335C 109.161,334.582 80.3279,319.748 59,290.5C 39.4437,258.518 36.1104,224.852 49,189.5C 64.8724,154.993 91.3724,133.993 128.5,126.5 Z"/></g>
<g><path style="opacity:0.999" fill="#dfe0e5" d="M 150.5,225.5 C 152.833,225.5 155.167,225.5 157.5,225.5C 157.5,228.833 157.5,232.167 157.5,235.5C 157.5,237.5 157.5,239.5 157.5,241.5C 153.782,243.151 150.282,242.818 147,240.5C 146.142,234.937 147.309,229.937 150.5,225.5 Z"/></g>
<g><path style="opacity:1" fill="#e4e5e9" d="M 183.5,242.5 C 191.621,242.195 198.955,244.361 205.5,249C 203.698,252.781 201.531,256.281 199,259.5C 195.411,257.477 191.578,256.144 187.5,255.5C 181.013,257.042 180.013,260.208 184.5,265C 193.35,267.496 200.516,272.329 206,279.5C 209.453,292.096 204.953,300.263 192.5,304C 180.795,306.56 170.462,304.06 161.5,296.5C 163.934,292.618 166.601,288.952 169.5,285.5C 174.751,289.968 180.751,291.801 187.5,291C 192.368,288.523 192.701,285.523 188.5,282C 181.578,279.294 175.411,275.46 170,270.5C 164.006,256.153 168.506,246.82 183.5,242.5 Z"/></g>
<g><path style="opacity:1" fill="#e6e7ec" d="M 311.5,242.5 C 338.794,244.429 349.628,258.762 344,285.5C 335.805,302.683 322.638,308.516 304.5,303C 288.063,294.731 282.23,281.565 287,263.5C 291.717,252.27 299.883,245.27 311.5,242.5 Z M 312.5,256.5 C 321.529,255.926 327.363,259.926 330,268.5C 332.665,280.864 327.998,288.531 316,291.5C 305.899,290.065 300.733,284.231 300.5,274C 300.709,265.375 304.709,259.541 312.5,256.5 Z"/></g>
<g><path style="opacity:1" fill="#eeeff4" d="M 252.5,244.5 C 266.759,247.056 271.926,255.39 268,269.5C 266.594,274.573 263.428,278.073 258.5,280C 252.593,281.361 246.593,281.861 240.5,281.5C 240.5,288.833 240.5,296.167 240.5,303.5C 236.167,303.5 231.833,303.5 227.5,303.5C 227.5,283.833 227.5,264.167 227.5,244.5C 235.833,244.5 244.167,244.5 252.5,244.5 Z M 254.5,263.5 C 253.623,265.728 252.29,267.728 250.5,269.5C 247.214,270.207 243.881,270.54 240.5,270.5C 240.5,265.5 240.5,260.5 240.5,255.5C 244.792,255.035 248.792,255.868 252.5,258C 253.244,259.815 253.911,261.648 254.5,263.5 Z"/></g>
<g><path style="opacity:0.999" fill="#eeeff4" d="M 389.5,244.5 C 400.369,245.204 406.036,251.037 406.5,262C 405.942,270.206 401.942,275.873 394.5,279C 401.167,287 407.833,295 414.5,303C 408.141,303.831 401.807,303.664 395.5,302.5C 390.476,295.815 385.476,289.148 380.5,282.5C 380.217,281.711 379.717,281.044 379,280.5C 378.5,288.159 378.334,295.826 378.5,303.5C 374.167,303.5 369.833,303.5 365.5,303.5C 365.5,283.833 365.5,264.167 365.5,244.5C 373.5,244.5 381.5,244.5 389.5,244.5 Z M 384.5,255.5 C 391.292,257.586 392.958,261.753 389.5,268C 386.321,269.461 382.988,270.295 379.5,270.5C 379.5,265.5 379.5,260.5 379.5,255.5C 381.167,255.5 382.833,255.5 384.5,255.5 Z"/></g>
<g><path style="opacity:0.999" fill="#eff0f5" d="M 468.5,244.5 C 468.5,248.5 468.5,252.5 468.5,256.5C 463.833,256.5 459.167,256.5 454.5,256.5C 454.5,272.167 454.5,287.833 454.5,303.5C 449.833,303.5 445.167,303.5 440.5,303.5C 440.5,287.833 440.5,272.167 440.5,256.5C 436.366,255.515 432.032,255.182 427.5,255.5C 427.5,251.833 427.5,248.167 427.5,244.5C 441.167,244.5 454.833,244.5 468.5,244.5 Z"/></g>
</svg>
