<?xml version="1.0" encoding="UTF-8"?>
<svg version="1.1" xmlns="http://www.w3.org/2000/svg" width="437" height="216">
<path d="M0 0 C0.94431885 0.0616333 0.94431885 0.0616333 1.90771484 0.12451172 C30.23058977 2.15173785 56.19127529 14.46784004 75 36 C91.37249846 55.88219668 100 79.2619135 100 105 C89.44 105 78.88 105 68 105 C67.608125 102.15375 67.21625 99.3075 66.8125 96.375 C63.77819654 76.43236106 55.04835246 58.93468228 38.8125 46.453125 C23.08120085 35.22471714 2.61174881 30.44057471 -16.48144531 33.38232422 C-30.60370714 36.18382721 -42.86431225 41.29961513 -53.29296875 51.49609375 C-55 53 -55 53 -57 53 C-57.26425781 53.58007812 -57.52851562 54.16015625 -57.80078125 54.7578125 C-59.04909202 57.09178768 -60.47527282 58.86107604 -62.1875 60.875 C-69.14979475 69.71231777 -73.73123506 80.00102756 -76 91 C-76.226875 92.093125 -76.45375 93.18625 -76.6875 94.3125 C-78.57299793 116.56137553 -73.19965977 136.19209147 -59.1875 153.6875 C-44.50560479 169.78775062 -25.08392396 175.8916076 -4 178 C-4 188.56 -4 199.12 -4 210 C-34.70595814 209.04043881 -60.73548673 198.99605524 -82.38574219 176.73730469 C-86.3579412 172.46232463 -89.76934351 167.8596162 -93 163 C-93.54914063 162.19433594 -94.09828125 161.38867188 -94.6640625 160.55859375 C-99.19565464 153.50557726 -102.27748264 145.8906198 -105 138 C-105.41765625 136.80632812 -105.8353125 135.61265625 -106.265625 134.3828125 C-111.68644132 115.71535349 -111.69143713 91.24737296 -105 73 C-104.4740625 71.38158203 -104.4740625 71.38158203 -103.9375 69.73046875 C-99.18244847 56.07620619 -92.05678082 44.33822058 -82 34 C-80.95449462 32.69055577 -79.91269176 31.3781449 -78.875 30.0625 C-60.14037711 8.74379119 -27.79831532 -1.84797853 0 0 Z " fill="#EEEFF4" transform="translate(113,3)"/>
<path d="M0 0 C8.63928478 5.96176599 12.45532869 12.2043191 14.375 22.375 C15.7025651 32.83862678 13.33316591 40.57033779 7 49 C1.42728926 55.19915129 -5.51090063 58.21707329 -13.796875 59 C-22.7719465 59 -29.89928512 56.61253454 -36.625 50.6875 C-43.9522327 42.39615773 -46.52823358 35.54748151 -46.30859375 24.28125 C-45.46854067 15.34903999 -41.26948107 9.16928389 -35 3 C-34.236875 2.236875 -33.47375 1.47375 -32.6875 0.6875 C-22.26324352 -5.85796337 -10.73493686 -5.49875903 0 0 Z M-27.25 15 C-30.48178738 20.54020694 -31.71930017 27.04958758 -30.375 33.375 C-28.68123494 37.84038062 -27.36717551 40.75804993 -23.01953125 43.0390625 C-18.42844391 44.85653253 -14.61487374 45.5217596 -9.859375 44 C-5.91588153 41.87912956 -2.77454228 38.33307248 -1.359375 34.0703125 C-0.19475675 27.3610987 -0.44340188 21.6051596 -3.85546875 15.625 C-6.12115186 12.40819394 -8.32674902 11.22441699 -12 10 C-18.44523067 9.5135675 -22.40825559 10.69622719 -27.25 15 Z " fill="#E6E7EC" transform="translate(294,124)"/>
<path d="M0 0 C31.78947368 0 31.78947368 0 38.5 6.375 C41.4746568 11.5806494 42.52635701 15.99953009 42 22 C39.87196033 28.49612109 36.6407177 32.23952153 31 36 C36.87536004 43.21396665 36.87536004 43.21396665 42.82421875 50.3671875 C43.28135254 50.91149414 43.73848633 51.45580078 44.20947266 52.01660156 C45.51402561 53.56737653 46.82141209 55.11576652 48.12890625 56.6640625 C50 59 50 59 50 60 C43.68991699 60.95047275 37.20599034 61.89836186 31 60 C26.15311568 56.40332261 23.06734284 51.11416885 20.140625 45.92285156 C18.91164209 43.85104733 17.44533658 41.92711545 16 40 C15.67 46.6 15.34 53.2 15 60 C10.05 60 5.1 60 0 60 C0 40.2 0 20.4 0 0 Z M15 12 C15 16.95 15 21.9 15 27 C20.22001124 26.71667051 20.22001124 26.71667051 24.9375 24.8125 C26.54321002 22.07334761 27 20.18892702 27 17 C25.1264113 13.9594012 25.1264113 13.9594012 22 12 C19.69 12 17.38 12 15 12 Z " fill="#E2E3E8" transform="translate(327,121)"/>
<path d="M0 0 C-1.31061591 4.23429756 -2.94356259 8.07407404 -5 12 C-7.76857234 11.51142841 -10.19294038 10.92282385 -12.8125 9.875 C-16.95256412 8.73851181 -19.7893243 9.27402143 -24 10 C-23.45301042 13.07461081 -22.93065077 15.31349469 -20.33789062 17.22607422 C-18.17121369 18.37524234 -15.98411163 19.42557885 -13.75 20.4375 C-7.6075107 23.24534459 -2.60588447 26.07935489 1 32 C2.58844111 37.67606931 2.22254196 42.49656277 0 48 C-3.05830096 53.26027765 -7.42799126 55.1272117 -13 57 C-23.77186443 59.47223118 -33.6314584 56.43043783 -43 51 C-43 46.61793033 -42.43228025 45.69573036 -40 42.25 C-39.443125 41.45078125 -38.88625 40.6515625 -38.3125 39.828125 C-37.879375 39.22484375 -37.44625 38.6215625 -37 38 C-34.24412376 39.0652967 -31.75305386 40.14267999 -29.1875 41.625 C-25.05365554 43.40822702 -22.47998752 43.36721209 -18 43 C-17.01 42.34 -16.02 41.68 -15 41 C-14.89532121 38.63541979 -14.89532121 38.63541979 -16 36 C-18.38764181 34.15648593 -21.05017395 32.89102356 -23.75 31.5625 C-30.14774073 28.38088973 -34.92022422 25.5140588 -38.03125 18.76171875 C-39.35947867 12.88430687 -38.93638897 8.33322943 -36 3 C-25.74602193 -7.96937189 -12.47617575 -6.23808788 0 0 Z " fill="#E3E4E9" transform="translate(168,125)"/>
<path d="M0 0 C31.25 0 31.25 0 38.4375 5.75 C42.47223394 10.32269847 43.22697637 15.04347688 42.875 21 C42.0386923 27.32517777 40.10355475 31.36867183 34.9375 35.375 C30.27291949 37.95540624 26.50590764 38.12505784 21.3125 38.0625 C17.6928125 38.0315625 17.6928125 38.0315625 14 38 C14 45.26 14 52.52 14 60 C9.38 60 4.76 60 0 60 C0 40.2 0 20.4 0 0 Z M14 12 C14 16.95 14 21.9 14 27 C20.90435034 27.27757365 20.90435034 27.27757365 26 24 C27.8010962 21.02427584 28.16642792 19.71564005 27.375 16.3125 C25.73425843 13.55307099 25.07421056 12.88990306 22 12 C19.30881711 11.85048984 16.70025252 11.90999158 14 12 Z " fill="#E8E9EE" transform="translate(189,121)"/>
<path d="M0 0 C13.86 0 27.72 0 42 0 C42 4.29 42 8.58 42 13 C37.38 13 32.76 13 28 13 C28 28.51 28 44.02 28 60 C23.38 60 18.76 60 14 60 C14 44.49 14 28.98 14 13 C9.38 13 4.76 13 0 13 C0 8.71 0 4.42 0 0 Z " fill="#E8E8ED" transform="translate(389,121)"/>
<path d="M0 0 C2.05078125 0.03255208 4.1015625 0.06510417 6.15234375 0.09765625 C6.336854 11.61929634 6.336854 11.61929634 5.15234375 17.09765625 C-2.47265625 18.34765625 -2.47265625 18.34765625 -5.84765625 16.09765625 C-6.53746789 10.3492259 -5.08251423 6.28252676 -2.84765625 1.09765625 C-1.84765625 0.09765625 -1.84765625 0.09765625 0 0 Z " fill="#E1E2E7" transform="translate(114.84765625,101.90234375)"/>
<path d="M0 0 C0.66 0.33 1.32 0.66 2 1 C-3.28 6.28 -8.56 11.56 -14 17 C-14.66 16.67 -15.32 16.34 -16 16 C-14.27538679 14.07906479 -12.54557391 12.163278 -10.8125 10.25 C-10.32974609 9.71117187 -9.84699219 9.17234375 -9.34960938 8.6171875 C-6.43837795 5.41287909 -3.47293499 2.6158121 0 0 Z " fill="#ABACAF" transform="translate(43,25)"/>
<path d="M0 0 C2.64 0 5.28 0 8 0 C8 3.63 8 7.26 8 11 C7.67 11 7.34 11 7 11 C7 7.7 7 4.4 7 1 C3.59687262 2.05875074 0.98646769 3.00902154 -2 5 C-1.34 3.35 -0.68 1.7 0 0 Z " fill="#87878A" transform="translate(113,102)"/>
<path d="M0 0 C0.99 0.33 1.98 0.66 3 1 C-0.465 3.97 -0.465 3.97 -4 7 C-3.04065919 3.16263678 -2.76390737 2.40339772 0 0 Z " fill="#A9AAAE" transform="translate(136,124)"/>
</svg>
